<svg t="1663991821713" class="icon" viewBox="0 0 1024 1024" version="1.1" xmlns="http://www.w3.org/2000/svg" p-id="9378" width="200" height="200"><path d="M508.64 505.32m-416.9 0a416.9 416.9 0 1 0 833.8 0 416.9 416.9 0 1 0-833.8 0Z" fill="#FFC600" p-id="9379"></path><path d="M880.26 546.65C859.77 733.54 700.92 879.1 508.64 879.1S157.87 733.18 137.02 546.65c-17.97-5.39-30.91-21.56-30.91-41.33H91.74c0 230.38 186.53 416.9 416.9 416.9s416.9-186.53 416.9-416.9h-14.38c0.01 19.76-13.29 35.94-30.9 41.33z" fill="#FFA100" p-id="9380"></path><path d="M868.04 519.69c-7.91 0-14.38-6.47-14.38-14.38 0-41.69-7.55-82.66-22.64-122.2-2.88-7.55 0.72-15.81 8.27-18.69 7.55-2.88 15.81 0.72 18.69 8.27 16.17 42.77 24.44 87.33 24.44 132.62 0 7.91-6.47 14.38-14.38 14.38zM189.13 355.81c-2.16 0-4.31-0.36-6.47-1.44-7.19-3.59-9.7-12.22-6.11-19.41 23.72-46.36 56.07-86.26 96.32-118.96 6.11-5.03 15.09-3.95 20.13 2.16 5.03 6.11 3.95 15.09-2.16 20.13-37.02 30.19-66.85 67.21-88.77 109.98-2.87 4.66-7.9 7.54-12.94 7.54zM149.24 519.69c-7.91 0-14.38-6.47-14.38-14.38 0-18.33 1.44-37.38 4.31-56.79 1.08-7.91 8.27-13.3 16.53-11.86 7.91 1.08 13.3 8.63 11.86 16.53-2.88 17.61-3.95 35.58-3.95 52.47 0.01 7.56-6.46 14.03-14.37 14.03z" fill="#FFEEB2" p-id="9381"></path><path d="M670.01 199.11c-2.16 0-4.31-0.36-6.47-1.44-11.14-5.75-20.49-10.06-29.83-13.66-7.55-2.88-11.14-11.14-8.27-18.69 2.88-7.55 11.14-11.14 18.69-8.27 10.06 3.95 20.13 8.63 32.35 14.74 7.19 3.59 10.06 12.22 6.47 19.41-2.87 5.03-7.91 7.91-12.94 7.91zM786.82 292.55c-4.31 0-8.27-1.8-11.14-5.39-6.47-8.27-14.38-16.53-23.36-25.52-5.75-5.75-5.75-14.74 0-20.49 5.75-5.75 14.74-5.75 20.49 0 9.7 9.7 17.97 19.05 25.52 27.67 5.03 6.11 3.95 15.09-2.16 20.13-2.88 2.88-6.12 3.6-9.35 3.6zM381.05 183.65c-5.75 0-11.14-3.59-13.3-9.34-2.88-7.55 0.72-15.81 8.27-18.69 42.41-16.17 86.97-24.44 132.62-24.44 5.03 0 9.7 0.36 14.38 0.36l3.95 0.36c7.91 0.36 14.02 7.19 13.66 15.09-0.36 7.91-7.19 14.02-15.09 13.66l-4.31-0.36c-45.64-2.52-92.01 5.39-135.49 21.92-1.09 1.08-2.89 1.44-4.69 1.44z" fill="#FFEEB2" p-id="9382"></path><path d="M718.89 214.2m-14.38 0a14.38 14.38 0 1 0 28.76 0 14.38 14.38 0 1 0-28.76 0Z" fill="#FFEEB2" p-id="9383"></path><path d="M882.06 290.04c0-0.36 0-0.36 0 0 0-0.36 0-0.36 0 0-18.69-32.35-41.33-62.18-68.65-89.49-60.38-60.38-134.06-98.84-211.69-115.73-0.36 0-0.36-0.36-0.72-0.36-0.72-0.36-1.08 0-1.8-0.36-102.79-22.28-212.41-6.47-305.85 47.8h-0.36c-31.99 18.33-61.82 41.33-89.13 68.29-50.32 50.32-85.54 109.98-105.66 173.59 0 0.36-0.36 0.72-0.36 1.08v0.36c-35.58 113.93-23.36 239.72 37.38 345.02v0.36l0.36 0.36c18.33 31.99 40.97 61.82 68.29 89.13 60.38 60.38 134.06 98.84 211.69 115.73 0.36 0 0.36 0.36 0.72 0.36 1.08 0.36 2.16 0.36 3.23 0.36 29.47 6.11 59.66 9.34 89.85 9.34 74.4 0 148.79-19.05 215.28-57.5h0.36c31.99-18.33 61.82-41.33 89.13-68.29 50.32-50.32 85.18-109.98 105.66-173.23 0-0.36 0.36-1.08 0.72-1.44v-0.36c34.87-113.93 22.65-239.72-38.45-345.02zM607.12 115.01c68.29 17.25 132.98 52.11 186.17 105.66 21.92 21.92 40.61 46 56.43 71.16L638.74 413.67c-48.51-91.65-60.02-198.75-31.62-298.66z m-98.48-11.86c23.36 0 47.08 2.16 70.08 6.11-29.83 106.74-17.25 221.03 34.87 318.79l-99.91 57.86L319.6 149.87c59.3-31.27 123.99-46.72 189.04-46.72zM224 220.67c21.92-21.92 46-40.61 71.16-56.43l194.08 335.68-99.91 57.86c-58.58-93.8-151.31-162.09-258.77-189.76 19.4-53.9 50.31-104.22 93.44-147.35zM121.57 395.34c100.63 25.52 187.61 88.77 242.6 176.47L153.19 693.64c-48.87-92-59.66-199.46-31.62-298.3z m288.6 500.29C341.88 878.38 277.19 843.51 224 789.96c-21.92-21.92-40.61-46-56.43-71.16l210.97-121.84c48.52 91.65 60.02 198.75 31.63 298.67z m28.39 5.75c29.83-106.74 17.25-221.03-34.86-318.79l99.91-57.86 194.08 336.04c-80.51 42.4-171.8 56.06-259.13 40.61z m354.73-111.42c-21.92 21.92-46 40.61-71.16 56.43L528.05 510.71l99.91-57.86c58.58 93.8 151.31 162.09 258.77 189.76-19.41 53.91-50.31 104.22-93.44 147.35z m102.43-174.67c-100.63-25.52-187.61-88.77-242.6-176.47l210.97-121.84c48.88 92.02 59.66 199.48 31.63 298.31z" fill="#090418" p-id="9384"></path><path d="M91.74 731.38m-14.38 0a14.38 14.38 0 1 0 28.76 0 14.38 14.38 0 1 0-28.76 0Z" fill="#090418" p-id="9385"></path><path d="M289.41 909.64c-44.57-24.44-85.18-56.07-120.4-94.88-5.39-5.75-14.38-6.11-20.49-1.08-5.75 5.39-6.47 14.38-1.08 20.49 37.38 40.97 80.15 74.76 127.95 100.63 2.16 1.08 4.67 1.8 6.83 1.8 5.03 0 10.06-2.88 12.58-7.55 3.95-6.83 1.44-15.81-5.39-19.41z" fill="#090418" p-id="9386"></path><path d="M122.29 779.9m-14.38 0a14.38 14.38 0 1 0 28.76 0 14.38 14.38 0 1 0-28.76 0Z" fill="#090418" p-id="9387"></path><path d="M895 230.73m-14.38 0a14.38 14.38 0 1 0 28.76 0 14.38 14.38 0 1 0-28.76 0Z" fill="#090418" p-id="9388"></path><path d="M859.06 186.17m-14.38 0a14.38 14.38 0 1 0 28.76 0 14.38 14.38 0 1 0-28.76 0Z" fill="#090418" p-id="9389"></path><path d="M817.73 146.28m-14.38 0a14.38 14.38 0 1 0 28.76 0 14.38 14.38 0 1 0-28.76 0Z" fill="#090418" p-id="9390"></path><path d="M609.27 548.45m-14.38 0a14.38 14.38 0 1 0 28.76 0 14.38 14.38 0 1 0-28.76 0Z" fill="#090418" p-id="9391"></path><path d="M523.02 749.71m-14.38 0a14.38 14.38 0 1 0 28.76 0 14.38 14.38 0 1 0-28.76 0Z" fill="#090418" p-id="9392"></path><path d="M350.51 720.96m-14.38 0a14.38 14.38 0 1 0 28.76 0 14.38 14.38 0 1 0-28.76 0Z" fill="#090418" p-id="9393"></path><path d="M235.5 548.45m-14.38 0a14.38 14.38 0 1 0 28.76 0 14.38 14.38 0 1 0-28.76 0Z" fill="#090418" p-id="9394"></path><path d="M436.76 232.17m-14.38 0a14.38 14.38 0 1 0 28.76 0 14.38 14.38 0 1 0-28.76 0Z" fill="#090418" p-id="9395"></path></svg>